<?xml version="1.0" encoding="UTF-8"?>
<svg xmlns="http://www.w3.org/2000/svg" width="384" height="344" viewBox="0 0 384 344" role="img" aria-label="billings — visual vocabulary">
  <title>billings — visual vocabulary</title>
  <rect x="0" y="0" width="384" height="344" fill="#ffffff"/>
  <g transform="translate(336, 16)"><rect x="1" y="1" width="30" height="30" rx="5.12" ry="5.12" fill="#7FB069" stroke="none" stroke-width="0"/></g><text x="16" y="32" font-size="13" dominant-baseline="central" fill="#1f2937" font-family="system-ui, -apple-system, sans-serif">Dry</text>
  <g transform="translate(336, 56)"><rect x="1" y="1" width="30" height="30" rx="5.12" ry="5.12" fill="#F4C752" stroke="#888" stroke-width="1"/></g><text x="16" y="72" font-size="13" dominant-baseline="central" fill="#1f2937" font-family="system-ui, -apple-system, sans-serif">Basic Infertile Pattern (BIP)</text>
  <g transform="translate(336, 96)"><rect x="1" y="1" width="30" height="30" rx="5.12" ry="5.12" fill="#FFFFFF" stroke="#888" stroke-width="1"/></g><text x="16" y="112" font-size="13" dominant-baseline="central" fill="#1f2937" font-family="system-ui, -apple-system, sans-serif">Sticky</text>
  <g transform="translate(336, 136)"><rect x="1" y="1" width="30" height="30" rx="5.12" ry="5.12" fill="#FFFFFF" stroke="#888" stroke-width="1"/></g><text x="16" y="152" font-size="13" dominant-baseline="central" fill="#1f2937" font-family="system-ui, -apple-system, sans-serif">Cloudy / White</text>
  <g transform="translate(336, 176)"><rect x="1" y="1" width="30" height="30" rx="5.12" ry="5.12" fill="#FFFFFF" stroke="#888" stroke-width="1"/></g><text x="16" y="192" font-size="13" dominant-baseline="central" fill="#1f2937" font-family="system-ui, -apple-system, sans-serif">Wet &amp; Slippery</text>
  <g transform="translate(336, 216)"><rect x="1" y="1" width="30" height="30" rx="5.12" ry="5.12" fill="#FFFFFF" stroke="#888" stroke-width="1"/><text x="16" y="16" text-anchor="middle" dominant-baseline="central" font-size="19.2" font-weight="700" fill="#1f2937">X</text></g><text x="16" y="232" font-size="13" dominant-baseline="central" fill="#1f2937" font-family="system-ui, -apple-system, sans-serif">Peak day (X)</text>
  <g transform="translate(336, 256)"><rect x="1" y="1" width="30" height="30" rx="5.12" ry="5.12" fill="#C8155A" stroke="#888" stroke-width="1"/></g><text x="16" y="272" font-size="13" dominant-baseline="central" fill="#1f2937" font-family="system-ui, -apple-system, sans-serif">Bleeding — heavy</text>
  <g transform="translate(336, 296)"><rect x="1" y="1" width="30" height="30" rx="5.12" ry="5.12" fill="#FFFFFF" stroke="#888" stroke-width="1"/><text x="16" y="16" text-anchor="middle" dominant-baseline="central" font-size="19.2" font-weight="700" fill="#1f2937">X</text></g><text x="16" y="312" font-size="13" dominant-baseline="central" fill="#1f2937" font-family="system-ui, -apple-system, sans-serif">Peak day</text>
</svg>
