<?xml version="1.0" encoding="UTF-8"?>
<svg xmlns="http://www.w3.org/2000/svg" width="388" height="244" viewBox="0 0 388 244" role="img" aria-label="Cervical position — sample glyphs">
  <title>Cervical position — sample glyphs (height · firmness · openness)</title>
  <rect x="0" y="0" width="388" height="244" fill="#ffffff"/>
  <g transform="translate(336, 16)"><line x1="4.32" y1="6.4799999999999995" x2="16.2" y2="6.4799999999999995" stroke="#475569" stroke-width="2.16" stroke-linecap="round"/><line x1="19.8" y1="6.4799999999999995" x2="31.68" y2="6.4799999999999995" stroke="#475569" stroke-width="2.16" stroke-linecap="round"/><circle cx="18" cy="18" r="10.080000000000002" fill="#ffffff" stroke="rgb(148, 163, 184)" stroke-width="5.76"/><circle cx="18" cy="18" r="1.8" fill="rgb(148, 163, 184)"/></g><text x="16" y="34" font-size="13" dominant-baseline="central" fill="#1f2937" font-family="system-ui, -apple-system, sans-serif">Low · Firm · Closed (infertile)</text>
  <g transform="translate(336, 60)"><line x1="4.32" y1="6.4799999999999995" x2="16.2" y2="6.4799999999999995" stroke="#475569" stroke-width="2.16" stroke-linecap="round"/><line x1="19.8" y1="6.4799999999999995" x2="31.68" y2="6.4799999999999995" stroke="#475569" stroke-width="2.16" stroke-linecap="round"/><circle cx="18" cy="18" r="10.080000000000002" fill="#ffffff" stroke="rgb(126, 161, 176)" stroke-width="3.5999999999999996"/><circle cx="18" cy="18" r="1.8" fill="rgb(126, 161, 176)"/></g><text x="16" y="78" font-size="13" dominant-baseline="central" fill="#1f2937" font-family="system-ui, -apple-system, sans-serif">Low · Medium · Closed</text>
  <g transform="translate(336, 104)"><line x1="4.32" y1="18" x2="6.119999999999998" y2="18" stroke="#475569" stroke-width="2.16" stroke-linecap="round"/><line x1="29.880000000000003" y1="18" x2="31.68" y2="18" stroke="#475569" stroke-width="2.16" stroke-linecap="round"/><circle cx="18" cy="18" r="10.080000000000002" fill="#ffffff" stroke="rgb(81, 156, 160)" stroke-width="3.5999999999999996"/><circle cx="18" cy="18" r="3.2399999999999998" fill="#ffffff"/></g><text x="16" y="122" font-size="13" dominant-baseline="central" fill="#1f2937" font-family="system-ui, -apple-system, sans-serif">Medium · Medium · Medium</text>
  <g transform="translate(336, 148)"><line x1="4.32" y1="29.52" x2="16.2" y2="29.52" stroke="#475569" stroke-width="2.16" stroke-linecap="round"/><line x1="19.8" y1="29.52" x2="31.68" y2="29.52" stroke="#475569" stroke-width="2.16" stroke-linecap="round"/><circle cx="18" cy="18" r="10.080000000000002" fill="#ffffff" stroke="rgb(36, 151, 144)" stroke-width="3.5999999999999996"/><circle cx="18" cy="18" r="6.4799999999999995" fill="#ffffff"/></g><text x="16" y="166" font-size="13" dominant-baseline="central" fill="#1f2937" font-family="system-ui, -apple-system, sans-serif">High · Medium · Open</text>
  <g transform="translate(336, 192)"><line x1="4.32" y1="29.52" x2="16.2" y2="29.52" stroke="#475569" stroke-width="2.16" stroke-linecap="round"/><line x1="19.8" y1="29.52" x2="31.68" y2="29.52" stroke="#475569" stroke-width="2.16" stroke-linecap="round"/><circle cx="18" cy="18" r="10.080000000000002" fill="#ffffff" stroke="rgb(13, 148, 136)" stroke-width="1.4399999999999995"/><circle cx="18" cy="18" r="6.4799999999999995" fill="#ffffff"/></g><text x="16" y="210" font-size="13" dominant-baseline="central" fill="#1f2937" font-family="system-ui, -apple-system, sans-serif">High · Soft · Open (peak fertile)</text>
</svg>
