<?xml version="1.0" encoding="UTF-8"?>
<svg xmlns="http://www.w3.org/2000/svg" width="384" height="1504" viewBox="0 0 384 1504" role="img" aria-label="creighton — visual vocabulary">
  <title>creighton — visual vocabulary</title>
  <rect x="0" y="0" width="384" height="1504" fill="#ffffff"/>
  <g transform="translate(336, 16)"><rect x="1" y="1" width="30" height="30" rx="5.12" ry="5.12" fill="#7FB069" stroke="none" stroke-width="0"/><text x="16" y="16" text-anchor="middle" dominant-baseline="central" font-size="11.52" font-weight="700" fill="#fff">0</text></g><text x="16" y="32" font-size="13" dominant-baseline="central" fill="#1f2937" font-family="system-ui, -apple-system, sans-serif">0</text>
  <g transform="translate(336, 56)"><rect x="1" y="1" width="30" height="30" rx="5.12" ry="5.12" fill="#F4C752" stroke="#888" stroke-width="1"/><text x="16" y="16" text-anchor="middle" dominant-baseline="central" font-size="11.52" font-weight="700" fill="#1f2937">2</text></g><text x="16" y="72" font-size="13" dominant-baseline="central" fill="#1f2937" font-family="system-ui, -apple-system, sans-serif">2</text>
  <g transform="translate(336, 96)"><rect x="1" y="1" width="30" height="30" rx="5.12" ry="5.12" fill="#F4C752" stroke="#888" stroke-width="1"/><text x="16" y="16" text-anchor="middle" dominant-baseline="central" font-size="11.52" font-weight="700" fill="#1f2937">4</text></g><text x="16" y="112" font-size="13" dominant-baseline="central" fill="#1f2937" font-family="system-ui, -apple-system, sans-serif">4</text>
  <g transform="translate(336, 136)"><rect x="1" y="1" width="30" height="30" rx="5.12" ry="5.12" fill="#F4C752" stroke="#888" stroke-width="1"/><text x="16" y="16" text-anchor="middle" dominant-baseline="central" font-size="11.52" font-weight="700" fill="#1f2937">6</text></g><text x="16" y="152" font-size="13" dominant-baseline="central" fill="#1f2937" font-family="system-ui, -apple-system, sans-serif">6</text>
  <g transform="translate(336, 176)"><rect x="1" y="1" width="30" height="30" rx="5.12" ry="5.12" fill="#F4C752" stroke="#888" stroke-width="1"/><text x="16" y="16" text-anchor="middle" dominant-baseline="central" font-size="11.52" font-weight="700" fill="#1f2937">8</text></g><text x="16" y="192" font-size="13" dominant-baseline="central" fill="#1f2937" font-family="system-ui, -apple-system, sans-serif">8</text>
  <g transform="translate(336, 216)"><rect x="1" y="1" width="30" height="30" rx="5.12" ry="5.12" fill="#FFFFFF" stroke="#888" stroke-width="1"/><text x="16" y="16" text-anchor="middle" dominant-baseline="central" font-size="11.52" font-weight="700" fill="#1f2937">10</text><g><circle cx="6.76" cy="6.76" r="4.48" fill="#fff" stroke="#1f2937" stroke-width="0.7"/><circle cx="5.192" cy="6.311999999999999" r="0.8" fill="#1f2937"/><circle cx="8.328" cy="6.311999999999999" r="0.8" fill="#1f2937"/><path d="M 4.744 7.656 Q 6.76 9.448 8.776 7.656" fill="none" stroke="#1f2937" stroke-width="0.7" stroke-linecap="round"/></g></g><text x="16" y="232" font-size="13" dominant-baseline="central" fill="#1f2937" font-family="system-ui, -apple-system, sans-serif">10</text>
  <g transform="translate(336, 256)"><rect x="1" y="1" width="30" height="30" rx="5.12" ry="5.12" fill="#F4C752" stroke="#888" stroke-width="1"/><text x="16" y="16" text-anchor="middle" dominant-baseline="central" font-size="11.52" font-weight="700" fill="#1f2937">2W</text></g><text x="16" y="272" font-size="13" dominant-baseline="central" fill="#1f2937" font-family="system-ui, -apple-system, sans-serif">2W</text>
  <g transform="translate(336, 296)"><rect x="1" y="1" width="30" height="30" rx="5.12" ry="5.12" fill="#C8155A" stroke="#888" stroke-width="1"/><text x="16" y="16" text-anchor="middle" dominant-baseline="central" font-size="11.52" font-weight="700" fill="#1f2937">6B</text></g><text x="16" y="312" font-size="13" dominant-baseline="central" fill="#1f2937" font-family="system-ui, -apple-system, sans-serif">6B</text>
  <g transform="translate(336, 336)"><rect x="1" y="1" width="30" height="30" rx="5.12" ry="5.12" fill="#F4C752" stroke="#888" stroke-width="1"/><text x="16" y="16" text-anchor="middle" dominant-baseline="central" font-size="11.52" font-weight="700" fill="#1f2937">6C</text></g><text x="16" y="352" font-size="13" dominant-baseline="central" fill="#1f2937" font-family="system-ui, -apple-system, sans-serif">6C</text>
  <g transform="translate(336, 376)"><rect x="1" y="1" width="30" height="30" rx="5.12" ry="5.12" fill="#F4C752" stroke="#888" stroke-width="1"/><text x="16" y="16" text-anchor="middle" dominant-baseline="central" font-size="11.52" font-weight="700" fill="#1f2937">6CK</text></g><text x="16" y="392" font-size="13" dominant-baseline="central" fill="#1f2937" font-family="system-ui, -apple-system, sans-serif">6CK</text>
  <g transform="translate(336, 416)"><rect x="1" y="1" width="30" height="30" rx="5.12" ry="5.12" fill="#F4C752" stroke="#888" stroke-width="1"/><text x="16" y="16" text-anchor="middle" dominant-baseline="central" font-size="11.52" font-weight="700" fill="#1f2937">6G</text></g><text x="16" y="432" font-size="13" dominant-baseline="central" fill="#1f2937" font-family="system-ui, -apple-system, sans-serif">6G</text>
  <g transform="translate(336, 456)"><rect x="1" y="1" width="30" height="30" rx="5.12" ry="5.12" fill="#FFFFFF" stroke="#888" stroke-width="1"/><text x="16" y="16" text-anchor="middle" dominant-baseline="central" font-size="11.52" font-weight="700" fill="#1f2937">6GL</text><g><circle cx="6.76" cy="6.76" r="4.48" fill="#fff" stroke="#1f2937" stroke-width="0.7"/><circle cx="5.192" cy="6.311999999999999" r="0.8" fill="#1f2937"/><circle cx="8.328" cy="6.311999999999999" r="0.8" fill="#1f2937"/><path d="M 4.744 7.656 Q 6.76 9.448 8.776 7.656" fill="none" stroke="#1f2937" stroke-width="0.7" stroke-linecap="round"/></g></g><text x="16" y="472" font-size="13" dominant-baseline="central" fill="#1f2937" font-family="system-ui, -apple-system, sans-serif">6GL</text>
  <g transform="translate(336, 496)"><rect x="1" y="1" width="30" height="30" rx="5.12" ry="5.12" fill="#F4C752" stroke="#888" stroke-width="1"/><text x="16" y="16" text-anchor="middle" dominant-baseline="central" font-size="11.52" font-weight="700" fill="#1f2937">6K</text></g><text x="16" y="512" font-size="13" dominant-baseline="central" fill="#1f2937" font-family="system-ui, -apple-system, sans-serif">6K</text>
  <g transform="translate(336, 536)"><rect x="1" y="1" width="30" height="30" rx="5.12" ry="5.12" fill="#FFFFFF" stroke="#888" stroke-width="1"/><text x="16" y="16" text-anchor="middle" dominant-baseline="central" font-size="11.52" font-weight="700" fill="#1f2937">6L</text><g><circle cx="6.76" cy="6.76" r="4.48" fill="#fff" stroke="#1f2937" stroke-width="0.7"/><circle cx="5.192" cy="6.311999999999999" r="0.8" fill="#1f2937"/><circle cx="8.328" cy="6.311999999999999" r="0.8" fill="#1f2937"/><path d="M 4.744 7.656 Q 6.76 9.448 8.776 7.656" fill="none" stroke="#1f2937" stroke-width="0.7" stroke-linecap="round"/></g></g><text x="16" y="552" font-size="13" dominant-baseline="central" fill="#1f2937" font-family="system-ui, -apple-system, sans-serif">6L</text>
  <g transform="translate(336, 576)"><rect x="1" y="1" width="30" height="30" rx="5.12" ry="5.12" fill="#F4C752" stroke="#888" stroke-width="1"/><text x="16" y="16" text-anchor="middle" dominant-baseline="central" font-size="11.52" font-weight="700" fill="#1f2937">6P</text></g><text x="16" y="592" font-size="13" dominant-baseline="central" fill="#1f2937" font-family="system-ui, -apple-system, sans-serif">6P</text>
  <g transform="translate(336, 616)"><rect x="1" y="1" width="30" height="30" rx="5.12" ry="5.12" fill="#C8155A" stroke="#888" stroke-width="1"/><text x="16" y="16" text-anchor="middle" dominant-baseline="central" font-size="11.52" font-weight="700" fill="#1f2937">6R</text></g><text x="16" y="632" font-size="13" dominant-baseline="central" fill="#1f2937" font-family="system-ui, -apple-system, sans-serif">6R</text>
  <g transform="translate(336, 656)"><rect x="1" y="1" width="30" height="30" rx="5.12" ry="5.12" fill="#F4C752" stroke="#888" stroke-width="1"/><text x="16" y="16" text-anchor="middle" dominant-baseline="central" font-size="11.52" font-weight="700" fill="#1f2937">6Y</text></g><text x="16" y="672" font-size="13" dominant-baseline="central" fill="#1f2937" font-family="system-ui, -apple-system, sans-serif">6Y</text>
  <g transform="translate(336, 696)"><rect x="1" y="1" width="30" height="30" rx="5.12" ry="5.12" fill="#F4C752" stroke="#888" stroke-width="1"/><text x="16" y="16" text-anchor="middle" dominant-baseline="central" font-size="11.52" font-weight="700" fill="#1f2937">8C</text></g><text x="16" y="712" font-size="13" dominant-baseline="central" fill="#1f2937" font-family="system-ui, -apple-system, sans-serif">8C</text>
  <g transform="translate(336, 736)"><rect x="1" y="1" width="30" height="30" rx="5.12" ry="5.12" fill="#F4C752" stroke="#888" stroke-width="1"/><text x="16" y="16" text-anchor="middle" dominant-baseline="central" font-size="11.52" font-weight="700" fill="#1f2937">8CK</text></g><text x="16" y="752" font-size="13" dominant-baseline="central" fill="#1f2937" font-family="system-ui, -apple-system, sans-serif">8CK</text>
  <g transform="translate(336, 776)"><rect x="1" y="1" width="30" height="30" rx="5.12" ry="5.12" fill="#F4C752" stroke="#888" stroke-width="1"/><text x="16" y="16" text-anchor="middle" dominant-baseline="central" font-size="11.52" font-weight="700" fill="#1f2937">8K</text></g><text x="16" y="792" font-size="13" dominant-baseline="central" fill="#1f2937" font-family="system-ui, -apple-system, sans-serif">8K</text>
  <g transform="translate(336, 816)"><rect x="1" y="1" width="30" height="30" rx="5.12" ry="5.12" fill="#FFFFFF" stroke="#888" stroke-width="1"/><text x="16" y="16" text-anchor="middle" dominant-baseline="central" font-size="11.52" font-weight="700" fill="#1f2937">8L</text><g><circle cx="6.76" cy="6.76" r="4.48" fill="#fff" stroke="#1f2937" stroke-width="0.7"/><circle cx="5.192" cy="6.311999999999999" r="0.8" fill="#1f2937"/><circle cx="8.328" cy="6.311999999999999" r="0.8" fill="#1f2937"/><path d="M 4.744 7.656 Q 6.76 9.448 8.776 7.656" fill="none" stroke="#1f2937" stroke-width="0.7" stroke-linecap="round"/></g></g><text x="16" y="832" font-size="13" dominant-baseline="central" fill="#1f2937" font-family="system-ui, -apple-system, sans-serif">8L</text>
  <g transform="translate(336, 856)"><rect x="1" y="1" width="30" height="30" rx="5.12" ry="5.12" fill="#F4C752" stroke="#888" stroke-width="1"/><text x="16" y="16" text-anchor="middle" dominant-baseline="central" font-size="11.52" font-weight="700" fill="#1f2937">8P</text></g><text x="16" y="872" font-size="13" dominant-baseline="central" fill="#1f2937" font-family="system-ui, -apple-system, sans-serif">8P</text>
  <g transform="translate(336, 896)"><rect x="1" y="1" width="30" height="30" rx="5.12" ry="5.12" fill="#F4C752" stroke="#888" stroke-width="1"/><text x="16" y="16" text-anchor="middle" dominant-baseline="central" font-size="11.52" font-weight="700" fill="#1f2937">8Y</text></g><text x="16" y="912" font-size="13" dominant-baseline="central" fill="#1f2937" font-family="system-ui, -apple-system, sans-serif">8Y</text>
  <g transform="translate(336, 936)"><rect x="1" y="1" width="30" height="30" rx="5.12" ry="5.12" fill="#FFFFFF" stroke="#888" stroke-width="1"/><text x="16" y="16" text-anchor="middle" dominant-baseline="central" font-size="11.52" font-weight="700" fill="#1f2937">8YL</text><g><circle cx="6.76" cy="6.76" r="4.48" fill="#fff" stroke="#1f2937" stroke-width="0.7"/><circle cx="5.192" cy="6.311999999999999" r="0.8" fill="#1f2937"/><circle cx="8.328" cy="6.311999999999999" r="0.8" fill="#1f2937"/><path d="M 4.744 7.656 Q 6.76 9.448 8.776 7.656" fill="none" stroke="#1f2937" stroke-width="0.7" stroke-linecap="round"/></g></g><text x="16" y="952" font-size="13" dominant-baseline="central" fill="#1f2937" font-family="system-ui, -apple-system, sans-serif">8YL</text>
  <g transform="translate(336, 976)"><rect x="1" y="1" width="30" height="30" rx="5.12" ry="5.12" fill="#C8155A" stroke="#888" stroke-width="1"/><text x="16" y="16" text-anchor="middle" dominant-baseline="central" font-size="11.52" font-weight="700" fill="#1f2937">10B</text></g><text x="16" y="992" font-size="13" dominant-baseline="central" fill="#1f2937" font-family="system-ui, -apple-system, sans-serif">10B</text>
  <g transform="translate(336, 1016)"><rect x="1" y="1" width="30" height="30" rx="5.12" ry="5.12" fill="#FFFFFF" stroke="#888" stroke-width="1"/><text x="16" y="16" text-anchor="middle" dominant-baseline="central" font-size="11.52" font-weight="700" fill="#1f2937">10C</text><g><circle cx="6.76" cy="6.76" r="4.48" fill="#fff" stroke="#1f2937" stroke-width="0.7"/><circle cx="5.192" cy="6.311999999999999" r="0.8" fill="#1f2937"/><circle cx="8.328" cy="6.311999999999999" r="0.8" fill="#1f2937"/><path d="M 4.744 7.656 Q 6.76 9.448 8.776 7.656" fill="none" stroke="#1f2937" stroke-width="0.7" stroke-linecap="round"/></g></g><text x="16" y="1032" font-size="13" dominant-baseline="central" fill="#1f2937" font-family="system-ui, -apple-system, sans-serif">10C</text>
  <g transform="translate(336, 1056)"><rect x="1" y="1" width="30" height="30" rx="5.12" ry="5.12" fill="#FFFFFF" stroke="#888" stroke-width="1"/><text x="16" y="16" text-anchor="middle" dominant-baseline="central" font-size="11.52" font-weight="700" fill="#1f2937">10CK</text><g><circle cx="6.76" cy="6.76" r="4.48" fill="#fff" stroke="#1f2937" stroke-width="0.7"/><circle cx="5.192" cy="6.311999999999999" r="0.8" fill="#1f2937"/><circle cx="8.328" cy="6.311999999999999" r="0.8" fill="#1f2937"/><path d="M 4.744 7.656 Q 6.76 9.448 8.776 7.656" fill="none" stroke="#1f2937" stroke-width="0.7" stroke-linecap="round"/></g></g><text x="16" y="1072" font-size="13" dominant-baseline="central" fill="#1f2937" font-family="system-ui, -apple-system, sans-serif">10CK</text>
  <g transform="translate(336, 1096)"><rect x="1" y="1" width="30" height="30" rx="5.12" ry="5.12" fill="#FFFFFF" stroke="#888" stroke-width="1"/><text x="16" y="16" text-anchor="middle" dominant-baseline="central" font-size="11.52" font-weight="700" fill="#1f2937">10K</text><g><circle cx="6.76" cy="6.76" r="4.48" fill="#fff" stroke="#1f2937" stroke-width="0.7"/><circle cx="5.192" cy="6.311999999999999" r="0.8" fill="#1f2937"/><circle cx="8.328" cy="6.311999999999999" r="0.8" fill="#1f2937"/><path d="M 4.744 7.656 Q 6.76 9.448 8.776 7.656" fill="none" stroke="#1f2937" stroke-width="0.7" stroke-linecap="round"/></g></g><text x="16" y="1112" font-size="13" dominant-baseline="central" fill="#1f2937" font-family="system-ui, -apple-system, sans-serif">10K</text>
  <g transform="translate(336, 1136)"><rect x="1" y="1" width="30" height="30" rx="5.12" ry="5.12" fill="#FFFFFF" stroke="#888" stroke-width="1"/><text x="16" y="16" text-anchor="middle" dominant-baseline="central" font-size="11.52" font-weight="700" fill="#1f2937">10KL</text><g><circle cx="6.76" cy="6.76" r="4.48" fill="#fff" stroke="#1f2937" stroke-width="0.7"/><circle cx="5.192" cy="6.311999999999999" r="0.8" fill="#1f2937"/><circle cx="8.328" cy="6.311999999999999" r="0.8" fill="#1f2937"/><path d="M 4.744 7.656 Q 6.76 9.448 8.776 7.656" fill="none" stroke="#1f2937" stroke-width="0.7" stroke-linecap="round"/></g></g><text x="16" y="1152" font-size="13" dominant-baseline="central" fill="#1f2937" font-family="system-ui, -apple-system, sans-serif">10KL</text>
  <g transform="translate(336, 1176)"><rect x="1" y="1" width="30" height="30" rx="5.12" ry="5.12" fill="#FFFFFF" stroke="#888" stroke-width="1"/><text x="16" y="16" text-anchor="middle" dominant-baseline="central" font-size="11.52" font-weight="700" fill="#1f2937">10L</text><g><circle cx="6.76" cy="6.76" r="4.48" fill="#fff" stroke="#1f2937" stroke-width="0.7"/><circle cx="5.192" cy="6.311999999999999" r="0.8" fill="#1f2937"/><circle cx="8.328" cy="6.311999999999999" r="0.8" fill="#1f2937"/><path d="M 4.744 7.656 Q 6.76 9.448 8.776 7.656" fill="none" stroke="#1f2937" stroke-width="0.7" stroke-linecap="round"/></g></g><text x="16" y="1192" font-size="13" dominant-baseline="central" fill="#1f2937" font-family="system-ui, -apple-system, sans-serif">10L</text>
  <g transform="translate(336, 1216)"><rect x="1" y="1" width="30" height="30" rx="5.12" ry="5.12" fill="#FFFFFF" stroke="#888" stroke-width="1"/><text x="16" y="16" text-anchor="middle" dominant-baseline="central" font-size="11.52" font-weight="700" fill="#1f2937">10P</text><g><circle cx="6.76" cy="6.76" r="4.48" fill="#fff" stroke="#1f2937" stroke-width="0.7"/><circle cx="5.192" cy="6.311999999999999" r="0.8" fill="#1f2937"/><circle cx="8.328" cy="6.311999999999999" r="0.8" fill="#1f2937"/><path d="M 4.744 7.656 Q 6.76 9.448 8.776 7.656" fill="none" stroke="#1f2937" stroke-width="0.7" stroke-linecap="round"/></g></g><text x="16" y="1232" font-size="13" dominant-baseline="central" fill="#1f2937" font-family="system-ui, -apple-system, sans-serif">10P</text>
  <g transform="translate(336, 1256)"><rect x="1" y="1" width="30" height="30" rx="5.12" ry="5.12" fill="#C8155A" stroke="#888" stroke-width="1"/><text x="16" y="16" text-anchor="middle" dominant-baseline="central" font-size="11.52" font-weight="700" fill="#1f2937">10R</text></g><text x="16" y="1272" font-size="13" dominant-baseline="central" fill="#1f2937" font-family="system-ui, -apple-system, sans-serif">10R</text>
  <g transform="translate(336, 1296)"><rect x="1" y="1" width="30" height="30" rx="5.12" ry="5.12" fill="#FFFFFF" stroke="#888" stroke-width="1"/><text x="16" y="16" text-anchor="middle" dominant-baseline="central" font-size="11.52" font-weight="700" fill="#1f2937">10Y</text><g><circle cx="6.76" cy="6.76" r="4.48" fill="#fff" stroke="#1f2937" stroke-width="0.7"/><circle cx="5.192" cy="6.311999999999999" r="0.8" fill="#1f2937"/><circle cx="8.328" cy="6.311999999999999" r="0.8" fill="#1f2937"/><path d="M 4.744 7.656 Q 6.76 9.448 8.776 7.656" fill="none" stroke="#1f2937" stroke-width="0.7" stroke-linecap="round"/></g></g><text x="16" y="1312" font-size="13" dominant-baseline="central" fill="#1f2937" font-family="system-ui, -apple-system, sans-serif">10Y</text>
  <g transform="translate(336, 1336)"><rect x="1" y="1" width="30" height="30" rx="5.12" ry="5.12" fill="#FFFFFF" stroke="#888" stroke-width="1"/><text x="16" y="16" text-anchor="middle" dominant-baseline="central" font-size="11.52" font-weight="700" fill="#1f2937">10DL</text><g><circle cx="6.76" cy="6.76" r="4.48" fill="#fff" stroke="#1f2937" stroke-width="0.7"/><circle cx="5.192" cy="6.311999999999999" r="0.8" fill="#1f2937"/><circle cx="8.328" cy="6.311999999999999" r="0.8" fill="#1f2937"/><path d="M 4.744 7.656 Q 6.76 9.448 8.776 7.656" fill="none" stroke="#1f2937" stroke-width="0.7" stroke-linecap="round"/></g></g><text x="16" y="1352" font-size="13" dominant-baseline="central" fill="#1f2937" font-family="system-ui, -apple-system, sans-serif">10DL</text>
  <g transform="translate(336, 1376)"><rect x="1" y="1" width="30" height="30" rx="5.12" ry="5.12" fill="#FFFFFF" stroke="#888" stroke-width="1"/><text x="16" y="16" text-anchor="middle" dominant-baseline="central" font-size="11.52" font-weight="700" fill="#1f2937">10SL</text><g><circle cx="6.76" cy="6.76" r="4.48" fill="#fff" stroke="#1f2937" stroke-width="0.7"/><circle cx="5.192" cy="6.311999999999999" r="0.8" fill="#1f2937"/><circle cx="8.328" cy="6.311999999999999" r="0.8" fill="#1f2937"/><path d="M 4.744 7.656 Q 6.76 9.448 8.776 7.656" fill="none" stroke="#1f2937" stroke-width="0.7" stroke-linecap="round"/></g></g><text x="16" y="1392" font-size="13" dominant-baseline="central" fill="#1f2937" font-family="system-ui, -apple-system, sans-serif">10SL</text>
  <g transform="translate(336, 1416)"><rect x="1" y="1" width="30" height="30" rx="5.12" ry="5.12" fill="#FFFFFF" stroke="#888" stroke-width="1"/><text x="16" y="16" text-anchor="middle" dominant-baseline="central" font-size="11.52" font-weight="700" fill="#1f2937">10WL</text><g><circle cx="6.76" cy="6.76" r="4.48" fill="#fff" stroke="#1f2937" stroke-width="0.7"/><circle cx="5.192" cy="6.311999999999999" r="0.8" fill="#1f2937"/><circle cx="8.328" cy="6.311999999999999" r="0.8" fill="#1f2937"/><path d="M 4.744 7.656 Q 6.76 9.448 8.776 7.656" fill="none" stroke="#1f2937" stroke-width="0.7" stroke-linecap="round"/></g></g><text x="16" y="1432" font-size="13" dominant-baseline="central" fill="#1f2937" font-family="system-ui, -apple-system, sans-serif">10WL</text>
  <g transform="translate(336, 1456)"><rect x="1" y="1" width="30" height="30" rx="5.12" ry="5.12" fill="#C8155A" stroke="#888" stroke-width="1"/></g><text x="16" y="1472" font-size="13" dominant-baseline="central" fill="#1f2937" font-family="system-ui, -apple-system, sans-serif">Bleeding — heavy</text>
</svg>
