<?xml version="1.0" encoding="UTF-8"?>
<svg xmlns="http://www.w3.org/2000/svg" width="344" height="298" viewBox="0 0 344 298" role="img" aria-label="Creighton 33-code grid">
  <title>Creighton 33-code grid</title>
  <rect x="0" y="0" width="344" height="298" fill="#ffffff"/>
  <g transform="translate(16, 16)"><rect x="1" y="1" width="34" height="34" rx="5.76" ry="5.76" fill="#7FB069" stroke="none" stroke-width="0"/><text x="18" y="18" text-anchor="middle" dominant-baseline="central" font-size="12.959999999999999" font-weight="700" fill="#fff">0</text></g>
  <g transform="translate(62, 16)"><rect x="1" y="1" width="34" height="34" rx="5.76" ry="5.76" fill="#F4C752" stroke="#888" stroke-width="1"/><text x="18" y="18" text-anchor="middle" dominant-baseline="central" font-size="12.959999999999999" font-weight="700" fill="#1f2937">2</text></g>
  <g transform="translate(108, 16)"><rect x="1" y="1" width="34" height="34" rx="5.76" ry="5.76" fill="#F4C752" stroke="#888" stroke-width="1"/><text x="18" y="18" text-anchor="middle" dominant-baseline="central" font-size="12.959999999999999" font-weight="700" fill="#1f2937">4</text></g>
  <g transform="translate(154, 16)"><rect x="1" y="1" width="34" height="34" rx="5.76" ry="5.76" fill="#F4C752" stroke="#888" stroke-width="1"/><text x="18" y="18" text-anchor="middle" dominant-baseline="central" font-size="12.959999999999999" font-weight="700" fill="#1f2937">6</text></g>
  <g transform="translate(200, 16)"><rect x="1" y="1" width="34" height="34" rx="5.76" ry="5.76" fill="#F4C752" stroke="#888" stroke-width="1"/><text x="18" y="18" text-anchor="middle" dominant-baseline="central" font-size="12.959999999999999" font-weight="700" fill="#1f2937">8</text></g>
  <g transform="translate(246, 16)"><rect x="1" y="1" width="34" height="34" rx="5.76" ry="5.76" fill="#FFFFFF" stroke="#888" stroke-width="1"/><text x="18" y="18" text-anchor="middle" dominant-baseline="central" font-size="12.959999999999999" font-weight="700" fill="#1f2937">10</text><g><circle cx="7.4799999999999995" cy="7.4799999999999995" r="5.040000000000001" fill="#fff" stroke="#1f2937" stroke-width="0.7"/><circle cx="5.715999999999999" cy="6.975999999999999" r="0.9" fill="#1f2937"/><circle cx="9.244" cy="6.975999999999999" r="0.9" fill="#1f2937"/><path d="M 5.211999999999999 8.488 Q 7.4799999999999995 10.504 9.748000000000001 8.488" fill="none" stroke="#1f2937" stroke-width="0.7" stroke-linecap="round"/></g></g>
  <g transform="translate(292, 16)"><rect x="1" y="1" width="34" height="34" rx="5.76" ry="5.76" fill="#F4C752" stroke="#888" stroke-width="1"/><text x="18" y="18" text-anchor="middle" dominant-baseline="central" font-size="12.959999999999999" font-weight="700" fill="#1f2937">2W</text></g>
  <g transform="translate(16, 62)"><rect x="1" y="1" width="34" height="34" rx="5.76" ry="5.76" fill="#C8155A" stroke="#888" stroke-width="1"/><text x="18" y="18" text-anchor="middle" dominant-baseline="central" font-size="12.959999999999999" font-weight="700" fill="#1f2937">6B</text></g>
  <g transform="translate(62, 62)"><rect x="1" y="1" width="34" height="34" rx="5.76" ry="5.76" fill="#F4C752" stroke="#888" stroke-width="1"/><text x="18" y="18" text-anchor="middle" dominant-baseline="central" font-size="12.959999999999999" font-weight="700" fill="#1f2937">6C</text></g>
  <g transform="translate(108, 62)"><rect x="1" y="1" width="34" height="34" rx="5.76" ry="5.76" fill="#F4C752" stroke="#888" stroke-width="1"/><text x="18" y="18" text-anchor="middle" dominant-baseline="central" font-size="12.959999999999999" font-weight="700" fill="#1f2937">6CK</text></g>
  <g transform="translate(154, 62)"><rect x="1" y="1" width="34" height="34" rx="5.76" ry="5.76" fill="#F4C752" stroke="#888" stroke-width="1"/><text x="18" y="18" text-anchor="middle" dominant-baseline="central" font-size="12.959999999999999" font-weight="700" fill="#1f2937">6G</text></g>
  <g transform="translate(200, 62)"><rect x="1" y="1" width="34" height="34" rx="5.76" ry="5.76" fill="#FFFFFF" stroke="#888" stroke-width="1"/><text x="18" y="18" text-anchor="middle" dominant-baseline="central" font-size="12.959999999999999" font-weight="700" fill="#1f2937">6GL</text><g><circle cx="7.4799999999999995" cy="7.4799999999999995" r="5.040000000000001" fill="#fff" stroke="#1f2937" stroke-width="0.7"/><circle cx="5.715999999999999" cy="6.975999999999999" r="0.9" fill="#1f2937"/><circle cx="9.244" cy="6.975999999999999" r="0.9" fill="#1f2937"/><path d="M 5.211999999999999 8.488 Q 7.4799999999999995 10.504 9.748000000000001 8.488" fill="none" stroke="#1f2937" stroke-width="0.7" stroke-linecap="round"/></g></g>
  <g transform="translate(246, 62)"><rect x="1" y="1" width="34" height="34" rx="5.76" ry="5.76" fill="#F4C752" stroke="#888" stroke-width="1"/><text x="18" y="18" text-anchor="middle" dominant-baseline="central" font-size="12.959999999999999" font-weight="700" fill="#1f2937">6K</text></g>
  <g transform="translate(292, 62)"><rect x="1" y="1" width="34" height="34" rx="5.76" ry="5.76" fill="#FFFFFF" stroke="#888" stroke-width="1"/><text x="18" y="18" text-anchor="middle" dominant-baseline="central" font-size="12.959999999999999" font-weight="700" fill="#1f2937">6L</text><g><circle cx="7.4799999999999995" cy="7.4799999999999995" r="5.040000000000001" fill="#fff" stroke="#1f2937" stroke-width="0.7"/><circle cx="5.715999999999999" cy="6.975999999999999" r="0.9" fill="#1f2937"/><circle cx="9.244" cy="6.975999999999999" r="0.9" fill="#1f2937"/><path d="M 5.211999999999999 8.488 Q 7.4799999999999995 10.504 9.748000000000001 8.488" fill="none" stroke="#1f2937" stroke-width="0.7" stroke-linecap="round"/></g></g>
  <g transform="translate(16, 108)"><rect x="1" y="1" width="34" height="34" rx="5.76" ry="5.76" fill="#F4C752" stroke="#888" stroke-width="1"/><text x="18" y="18" text-anchor="middle" dominant-baseline="central" font-size="12.959999999999999" font-weight="700" fill="#1f2937">6P</text></g>
  <g transform="translate(62, 108)"><rect x="1" y="1" width="34" height="34" rx="5.76" ry="5.76" fill="#C8155A" stroke="#888" stroke-width="1"/><text x="18" y="18" text-anchor="middle" dominant-baseline="central" font-size="12.959999999999999" font-weight="700" fill="#1f2937">6R</text></g>
  <g transform="translate(108, 108)"><rect x="1" y="1" width="34" height="34" rx="5.76" ry="5.76" fill="#F4C752" stroke="#888" stroke-width="1"/><text x="18" y="18" text-anchor="middle" dominant-baseline="central" font-size="12.959999999999999" font-weight="700" fill="#1f2937">6Y</text></g>
  <g transform="translate(154, 108)"><rect x="1" y="1" width="34" height="34" rx="5.76" ry="5.76" fill="#F4C752" stroke="#888" stroke-width="1"/><text x="18" y="18" text-anchor="middle" dominant-baseline="central" font-size="12.959999999999999" font-weight="700" fill="#1f2937">8C</text></g>
  <g transform="translate(200, 108)"><rect x="1" y="1" width="34" height="34" rx="5.76" ry="5.76" fill="#F4C752" stroke="#888" stroke-width="1"/><text x="18" y="18" text-anchor="middle" dominant-baseline="central" font-size="12.959999999999999" font-weight="700" fill="#1f2937">8CK</text></g>
  <g transform="translate(246, 108)"><rect x="1" y="1" width="34" height="34" rx="5.76" ry="5.76" fill="#F4C752" stroke="#888" stroke-width="1"/><text x="18" y="18" text-anchor="middle" dominant-baseline="central" font-size="12.959999999999999" font-weight="700" fill="#1f2937">8K</text></g>
  <g transform="translate(292, 108)"><rect x="1" y="1" width="34" height="34" rx="5.76" ry="5.76" fill="#FFFFFF" stroke="#888" stroke-width="1"/><text x="18" y="18" text-anchor="middle" dominant-baseline="central" font-size="12.959999999999999" font-weight="700" fill="#1f2937">8L</text><g><circle cx="7.4799999999999995" cy="7.4799999999999995" r="5.040000000000001" fill="#fff" stroke="#1f2937" stroke-width="0.7"/><circle cx="5.715999999999999" cy="6.975999999999999" r="0.9" fill="#1f2937"/><circle cx="9.244" cy="6.975999999999999" r="0.9" fill="#1f2937"/><path d="M 5.211999999999999 8.488 Q 7.4799999999999995 10.504 9.748000000000001 8.488" fill="none" stroke="#1f2937" stroke-width="0.7" stroke-linecap="round"/></g></g>
  <g transform="translate(16, 154)"><rect x="1" y="1" width="34" height="34" rx="5.76" ry="5.76" fill="#F4C752" stroke="#888" stroke-width="1"/><text x="18" y="18" text-anchor="middle" dominant-baseline="central" font-size="12.959999999999999" font-weight="700" fill="#1f2937">8P</text></g>
  <g transform="translate(62, 154)"><rect x="1" y="1" width="34" height="34" rx="5.76" ry="5.76" fill="#F4C752" stroke="#888" stroke-width="1"/><text x="18" y="18" text-anchor="middle" dominant-baseline="central" font-size="12.959999999999999" font-weight="700" fill="#1f2937">8Y</text></g>
  <g transform="translate(108, 154)"><rect x="1" y="1" width="34" height="34" rx="5.76" ry="5.76" fill="#FFFFFF" stroke="#888" stroke-width="1"/><text x="18" y="18" text-anchor="middle" dominant-baseline="central" font-size="12.959999999999999" font-weight="700" fill="#1f2937">8YL</text><g><circle cx="7.4799999999999995" cy="7.4799999999999995" r="5.040000000000001" fill="#fff" stroke="#1f2937" stroke-width="0.7"/><circle cx="5.715999999999999" cy="6.975999999999999" r="0.9" fill="#1f2937"/><circle cx="9.244" cy="6.975999999999999" r="0.9" fill="#1f2937"/><path d="M 5.211999999999999 8.488 Q 7.4799999999999995 10.504 9.748000000000001 8.488" fill="none" stroke="#1f2937" stroke-width="0.7" stroke-linecap="round"/></g></g>
  <g transform="translate(154, 154)"><rect x="1" y="1" width="34" height="34" rx="5.76" ry="5.76" fill="#C8155A" stroke="#888" stroke-width="1"/><text x="18" y="18" text-anchor="middle" dominant-baseline="central" font-size="12.959999999999999" font-weight="700" fill="#1f2937">10B</text></g>
  <g transform="translate(200, 154)"><rect x="1" y="1" width="34" height="34" rx="5.76" ry="5.76" fill="#FFFFFF" stroke="#888" stroke-width="1"/><text x="18" y="18" text-anchor="middle" dominant-baseline="central" font-size="12.959999999999999" font-weight="700" fill="#1f2937">10C</text><g><circle cx="7.4799999999999995" cy="7.4799999999999995" r="5.040000000000001" fill="#fff" stroke="#1f2937" stroke-width="0.7"/><circle cx="5.715999999999999" cy="6.975999999999999" r="0.9" fill="#1f2937"/><circle cx="9.244" cy="6.975999999999999" r="0.9" fill="#1f2937"/><path d="M 5.211999999999999 8.488 Q 7.4799999999999995 10.504 9.748000000000001 8.488" fill="none" stroke="#1f2937" stroke-width="0.7" stroke-linecap="round"/></g></g>
  <g transform="translate(246, 154)"><rect x="1" y="1" width="34" height="34" rx="5.76" ry="5.76" fill="#FFFFFF" stroke="#888" stroke-width="1"/><text x="18" y="18" text-anchor="middle" dominant-baseline="central" font-size="12.959999999999999" font-weight="700" fill="#1f2937">10CK</text><g><circle cx="7.4799999999999995" cy="7.4799999999999995" r="5.040000000000001" fill="#fff" stroke="#1f2937" stroke-width="0.7"/><circle cx="5.715999999999999" cy="6.975999999999999" r="0.9" fill="#1f2937"/><circle cx="9.244" cy="6.975999999999999" r="0.9" fill="#1f2937"/><path d="M 5.211999999999999 8.488 Q 7.4799999999999995 10.504 9.748000000000001 8.488" fill="none" stroke="#1f2937" stroke-width="0.7" stroke-linecap="round"/></g></g>
  <g transform="translate(292, 154)"><rect x="1" y="1" width="34" height="34" rx="5.76" ry="5.76" fill="#FFFFFF" stroke="#888" stroke-width="1"/><text x="18" y="18" text-anchor="middle" dominant-baseline="central" font-size="12.959999999999999" font-weight="700" fill="#1f2937">10K</text><g><circle cx="7.4799999999999995" cy="7.4799999999999995" r="5.040000000000001" fill="#fff" stroke="#1f2937" stroke-width="0.7"/><circle cx="5.715999999999999" cy="6.975999999999999" r="0.9" fill="#1f2937"/><circle cx="9.244" cy="6.975999999999999" r="0.9" fill="#1f2937"/><path d="M 5.211999999999999 8.488 Q 7.4799999999999995 10.504 9.748000000000001 8.488" fill="none" stroke="#1f2937" stroke-width="0.7" stroke-linecap="round"/></g></g>
  <g transform="translate(16, 200)"><rect x="1" y="1" width="34" height="34" rx="5.76" ry="5.76" fill="#FFFFFF" stroke="#888" stroke-width="1"/><text x="18" y="18" text-anchor="middle" dominant-baseline="central" font-size="12.959999999999999" font-weight="700" fill="#1f2937">10KL</text><g><circle cx="7.4799999999999995" cy="7.4799999999999995" r="5.040000000000001" fill="#fff" stroke="#1f2937" stroke-width="0.7"/><circle cx="5.715999999999999" cy="6.975999999999999" r="0.9" fill="#1f2937"/><circle cx="9.244" cy="6.975999999999999" r="0.9" fill="#1f2937"/><path d="M 5.211999999999999 8.488 Q 7.4799999999999995 10.504 9.748000000000001 8.488" fill="none" stroke="#1f2937" stroke-width="0.7" stroke-linecap="round"/></g></g>
  <g transform="translate(62, 200)"><rect x="1" y="1" width="34" height="34" rx="5.76" ry="5.76" fill="#FFFFFF" stroke="#888" stroke-width="1"/><text x="18" y="18" text-anchor="middle" dominant-baseline="central" font-size="12.959999999999999" font-weight="700" fill="#1f2937">10L</text><g><circle cx="7.4799999999999995" cy="7.4799999999999995" r="5.040000000000001" fill="#fff" stroke="#1f2937" stroke-width="0.7"/><circle cx="5.715999999999999" cy="6.975999999999999" r="0.9" fill="#1f2937"/><circle cx="9.244" cy="6.975999999999999" r="0.9" fill="#1f2937"/><path d="M 5.211999999999999 8.488 Q 7.4799999999999995 10.504 9.748000000000001 8.488" fill="none" stroke="#1f2937" stroke-width="0.7" stroke-linecap="round"/></g></g>
  <g transform="translate(108, 200)"><rect x="1" y="1" width="34" height="34" rx="5.76" ry="5.76" fill="#FFFFFF" stroke="#888" stroke-width="1"/><text x="18" y="18" text-anchor="middle" dominant-baseline="central" font-size="12.959999999999999" font-weight="700" fill="#1f2937">10P</text><g><circle cx="7.4799999999999995" cy="7.4799999999999995" r="5.040000000000001" fill="#fff" stroke="#1f2937" stroke-width="0.7"/><circle cx="5.715999999999999" cy="6.975999999999999" r="0.9" fill="#1f2937"/><circle cx="9.244" cy="6.975999999999999" r="0.9" fill="#1f2937"/><path d="M 5.211999999999999 8.488 Q 7.4799999999999995 10.504 9.748000000000001 8.488" fill="none" stroke="#1f2937" stroke-width="0.7" stroke-linecap="round"/></g></g>
  <g transform="translate(154, 200)"><rect x="1" y="1" width="34" height="34" rx="5.76" ry="5.76" fill="#C8155A" stroke="#888" stroke-width="1"/><text x="18" y="18" text-anchor="middle" dominant-baseline="central" font-size="12.959999999999999" font-weight="700" fill="#1f2937">10R</text></g>
  <g transform="translate(200, 200)"><rect x="1" y="1" width="34" height="34" rx="5.76" ry="5.76" fill="#FFFFFF" stroke="#888" stroke-width="1"/><text x="18" y="18" text-anchor="middle" dominant-baseline="central" font-size="12.959999999999999" font-weight="700" fill="#1f2937">10Y</text><g><circle cx="7.4799999999999995" cy="7.4799999999999995" r="5.040000000000001" fill="#fff" stroke="#1f2937" stroke-width="0.7"/><circle cx="5.715999999999999" cy="6.975999999999999" r="0.9" fill="#1f2937"/><circle cx="9.244" cy="6.975999999999999" r="0.9" fill="#1f2937"/><path d="M 5.211999999999999 8.488 Q 7.4799999999999995 10.504 9.748000000000001 8.488" fill="none" stroke="#1f2937" stroke-width="0.7" stroke-linecap="round"/></g></g>
  <g transform="translate(246, 200)"><rect x="1" y="1" width="34" height="34" rx="5.76" ry="5.76" fill="#FFFFFF" stroke="#888" stroke-width="1"/><text x="18" y="18" text-anchor="middle" dominant-baseline="central" font-size="12.959999999999999" font-weight="700" fill="#1f2937">10DL</text><g><circle cx="7.4799999999999995" cy="7.4799999999999995" r="5.040000000000001" fill="#fff" stroke="#1f2937" stroke-width="0.7"/><circle cx="5.715999999999999" cy="6.975999999999999" r="0.9" fill="#1f2937"/><circle cx="9.244" cy="6.975999999999999" r="0.9" fill="#1f2937"/><path d="M 5.211999999999999 8.488 Q 7.4799999999999995 10.504 9.748000000000001 8.488" fill="none" stroke="#1f2937" stroke-width="0.7" stroke-linecap="round"/></g></g>
  <g transform="translate(292, 200)"><rect x="1" y="1" width="34" height="34" rx="5.76" ry="5.76" fill="#FFFFFF" stroke="#888" stroke-width="1"/><text x="18" y="18" text-anchor="middle" dominant-baseline="central" font-size="12.959999999999999" font-weight="700" fill="#1f2937">10SL</text><g><circle cx="7.4799999999999995" cy="7.4799999999999995" r="5.040000000000001" fill="#fff" stroke="#1f2937" stroke-width="0.7"/><circle cx="5.715999999999999" cy="6.975999999999999" r="0.9" fill="#1f2937"/><circle cx="9.244" cy="6.975999999999999" r="0.9" fill="#1f2937"/><path d="M 5.211999999999999 8.488 Q 7.4799999999999995 10.504 9.748000000000001 8.488" fill="none" stroke="#1f2937" stroke-width="0.7" stroke-linecap="round"/></g></g>
  <g transform="translate(16, 246)"><rect x="1" y="1" width="34" height="34" rx="5.76" ry="5.76" fill="#FFFFFF" stroke="#888" stroke-width="1"/><text x="18" y="18" text-anchor="middle" dominant-baseline="central" font-size="12.959999999999999" font-weight="700" fill="#1f2937">10WL</text><g><circle cx="7.4799999999999995" cy="7.4799999999999995" r="5.040000000000001" fill="#fff" stroke="#1f2937" stroke-width="0.7"/><circle cx="5.715999999999999" cy="6.975999999999999" r="0.9" fill="#1f2937"/><circle cx="9.244" cy="6.975999999999999" r="0.9" fill="#1f2937"/><path d="M 5.211999999999999 8.488 Q 7.4799999999999995 10.504 9.748000000000001 8.488" fill="none" stroke="#1f2937" stroke-width="0.7" stroke-linecap="round"/></g></g>
</svg>
