<?xml version="1.0" encoding="UTF-8"?>
<svg xmlns="http://www.w3.org/2000/svg" width="384" height="424" viewBox="0 0 384 424" role="img" aria-label="femm — visual vocabulary">
  <title>femm — visual vocabulary</title>
  <rect x="0" y="0" width="384" height="424" fill="#ffffff"/>
  <g transform="translate(336, 16)"><circle cx="16" cy="16" r="15" fill="#A8A8A8" stroke="none" stroke-width="0"/></g><text x="16" y="32" font-size="13" dominant-baseline="central" fill="#1f2937" font-family="system-ui, -apple-system, sans-serif">Dry (1)</text>
  <g transform="translate(336, 56)"><circle cx="16" cy="16" r="15" fill="#F2A03D" stroke="none" stroke-width="0"/></g><text x="16" y="72" font-size="13" dominant-baseline="central" fill="#1f2937" font-family="system-ui, -apple-system, sans-serif">Pasty (2)</text>
  <g transform="translate(336, 96)"><circle cx="16" cy="16" r="15" fill="#7BB7E0" stroke="none" stroke-width="0"/></g><text x="16" y="112" font-size="13" dominant-baseline="central" fill="#1f2937" font-family="system-ui, -apple-system, sans-serif">Moist (3)</text>
  <g transform="translate(336, 136)"><circle cx="16" cy="16" r="15" fill="#3B6FB6" stroke="none" stroke-width="0"/></g><text x="16" y="152" font-size="13" dominant-baseline="central" fill="#1f2937" font-family="system-ui, -apple-system, sans-serif">Slippery (4)</text>
  <g transform="translate(336, 176)"><circle cx="16" cy="16" r="15" fill="#C8155A" stroke="none" stroke-width="0"/><text x="16" y="16" text-anchor="middle" dominant-baseline="central" font-size="17.6" font-weight="600" fill="#fff">M</text></g><text x="16" y="192" font-size="13" dominant-baseline="central" fill="#1f2937" font-family="system-ui, -apple-system, sans-serif">Bleeding — heavy</text>
  <g transform="translate(336, 216)"><circle cx="16" cy="16" r="15" fill="#C8155A" stroke="none" stroke-width="0"/><text x="16" y="16" text-anchor="middle" dominant-baseline="central" font-size="17.6" font-weight="600" fill="#fff">L</text></g><text x="16" y="232" font-size="13" dominant-baseline="central" fill="#1f2937" font-family="system-ui, -apple-system, sans-serif">Bleeding — light</text>
  <g transform="translate(336, 256)"><circle cx="16" cy="16" r="15" fill="#F4A2BD" stroke="none" stroke-width="0"/></g><text x="16" y="272" font-size="13" dominant-baseline="central" fill="#1f2937" font-family="system-ui, -apple-system, sans-serif">Bleeding — spotting</text>
  <g transform="translate(336, 296)"><circle cx="16" cy="16" r="15" fill="#7A4A2B" stroke="none" stroke-width="0"/></g><text x="16" y="312" font-size="13" dominant-baseline="central" fill="#1f2937" font-family="system-ui, -apple-system, sans-serif">Brown / dark coloration</text>
  <g transform="translate(336, 336)"><circle cx="16" cy="16" r="15" fill="#3B6FB6" stroke="none" stroke-width="0"/><circle cx="16" cy="16" r="3.84" fill="#1F3B7A"/></g><text x="16" y="352" font-size="13" dominant-baseline="central" fill="#1f2937" font-family="system-ui, -apple-system, sans-serif">Peak day</text>
  <g transform="translate(336, 376)"><path d="M 16 1 A 15 15 0 0 0 16 31 Z" fill="#C8155A"/><path d="M 16 1 A 15 15 0 0 1 16 31 Z" fill="#7BB7E0"/><circle cx="16" cy="16" r="15" fill="none" stroke="#0002" stroke-width="0.5"/></g><text x="16" y="392" font-size="13" dominant-baseline="central" fill="#1f2937" font-family="system-ui, -apple-system, sans-serif">Mixed day — Moist (3) + Bleeding — medium</text>
</svg>
